# xmcd
#
# Track frame offsets:
# 150
# 15529
# 35002
# 56617
# 72663
# 87781
# 104610
# 123329
# 142948
# 167608
# 190283
# 209494
# 229351
# 258542
#
# Disc length: 3645 seconds
#
#
# Revision: 0
# Processed by: cddbd v1.5.1PL2 Copyright (c) Steve Scherf et al.
# Submitted via: FreeRIP 2.941 
#
DISCID=cd0e3b0e
DTITLE=Various Artist - Piano Jazz Lounge Vol 2
DYEAR=2006
DGENRE=Jazz
TTITLE0=Adagio In G Minor
TTITLE1=Let's Drink From The Joyous Chalice [Traviata]
TTITLE2=Women Are As Fickle [Rigoletto]
TTITLE3=Air On The G String
TTITLE4=Pomp And Circumstance Nr. 2
TTITLE5=Valse Gracieuse
TTITLE6=Reverie
TTITLE7=Simphony Nr. 5 [Adagietto Theme]
TTITLE8=Farandole
TTITLE9=The Death Of Ase
TTITLE10=Nocturne In Eb Major
TTITLE11=Let Me Weep [Rinaldo]
TTITLE12=Waltz [Faust]
TTITLE13=Habanera [Carmen]
EXTD=(C) KAFEIN 1999-2006
EXTT0=
EXTT1=
EXTT2=
EXTT3=
EXTT4=
EXTT5=
EXTT6=
EXTT7=
EXTT8=
EXTT9=
EXTT10=
EXTT11=
EXTT12=
EXTT13=
PLAYORDER=
